<?xml version="1.0" encoding="UTF-8"?>
<svg width="525" height="526" viewBox="0 0 525 526" fill="none" xmlns="http://www.w3.org/2000/svg">
  <path fill-rule="evenodd" clip-rule="evenodd"
    d="M0 0H114.764V295.519C114.764 320.77 123.093 345.317 138.459 365.356C153.826 385.394 175.372 399.805 199.76 406.355C224.147 412.905 250.014 411.229 273.353 401.586C296.691 391.943 316.197 374.873 328.849 353.019C341.501 331.165 346.592 305.749 343.333 280.708C340.075 255.667 328.648 232.4 310.824 214.513C293 196.625 269.774 185.116 244.745 181.767C219.716 178.419 194.282 183.42 172.383 195.993L115.238 96.4684C159.035 71.3206 209.904 61.32 259.962 68.0162C310.02 74.7125 356.472 97.7318 392.119 133.507C427.767 169.282 450.621 215.816 457.138 265.897C463.644 315.885 453.512 366.622 428.312 410.274L524.552 525.047H229.899C229.651 525.048 229.402 525.048 229.154 525.047H221.416L221.533 524.908C204.219 524.305 186.926 521.74 169.991 517.191C121.215 504.091 78.1226 475.269 47.3898 435.193C17.8222 396.636 1.28332 349.732 0.0716939 301.257H0V295.519V0Z"
    fill="white" />
</svg>